<svg width="17" height="12" viewBox="0 0 17 12" fill="none" xmlns="http://www.w3.org/2000/svg">
<g opacity="0.3">
<path d="M9.06667 5.20185C8.53333 5.60185 8.53333 6.40185 9.06667 6.80185L14.4 10.8018C15.0592 11.2963 16 10.8259 16 10.0018L16 2.00185C16 1.1778 15.0592 0.707419 14.4 1.20185L9.06667 5.20185Z" fill="#303030"/>
<path d="M1.06667 5.20185C0.533333 5.60185 0.533332 6.40185 1.06667 6.80185L6.4 10.8018C7.05924 11.2963 8 10.8259 8 10.0018L8 2.00185C8 1.1778 7.05923 0.707419 6.4 1.20185L1.06667 5.20185Z" fill="#303030"/>
<path d="M9.06667 5.20185C8.53333 5.60185 8.53333 6.40185 9.06667 6.80185L14.4 10.8018C15.0592 11.2963 16 10.8259 16 10.0018L16 2.00185C16 1.1778 15.0592 0.707419 14.4 1.20185L9.06667 5.20185Z" stroke="#EAEAEA" stroke-linecap="round" stroke-linejoin="round"/>
<path d="M1.06667 5.20185C0.533333 5.60185 0.533332 6.40185 1.06667 6.80185L6.4 10.8018C7.05924 11.2963 8 10.8259 8 10.0018L8 2.00185C8 1.1778 7.05923 0.707419 6.4 1.20185L1.06667 5.20185Z" stroke="#EAEAEA" stroke-linecap="round" stroke-linejoin="round"/>
</g>
</svg>
