<svg width="18" height="18" viewBox="0 0 18 18" fill="none" xmlns="http://www.w3.org/2000/svg">
<path d="M13.1111 13.4444H14.8888C15.8707 13.4444 16.6666 12.6485 16.6666 11.6667V8.11111C16.6666 7.12927 15.8707 6.33333 14.8888 6.33333H2.4444C1.46256 6.33333 0.666626 7.12927 0.666626 8.11111V11.6667C0.666626 12.6485 1.46256 13.4444 2.4444 13.4444H4.22218M5.99996 17H11.3333C12.3151 17 13.1111 16.2041 13.1111 15.2222V11.6667C13.1111 10.6848 12.3151 9.88889 11.3333 9.88889H5.99996C5.01812 9.88889 4.22218 10.6848 4.22218 11.6667V15.2222C4.22218 16.2041 5.01812 17 5.99996 17ZM13.1111 6.33333V2.77778C13.1111 1.79594 12.3151 1 11.3333 1H5.99996C5.01812 1 4.22218 1.79594 4.22218 2.77778V6.33333H13.1111Z" stroke="#303030" stroke-linecap="round" stroke-linejoin="round"/>
</svg>
